<svg xmlns="http://www.w3.org/2000/svg" id="Layer_1" version="1" viewBox="0 0 128 128"><style>.st1{fill:#f7931e}.st2{fill:#585858}</style><path fill="#333" d="M112.4 127.9H15.7c-8.6 0-15.6-7-15.6-15.6V15.6C.1 7 7.1 0 15.7 0h96.7C121 0 128 7 128 15.6v96.7c0 8.7-7 15.6-15.6 15.6z"/><path d="M103.3 71.5L70.5 57.7c-.5-.2-.3-.9.2-.8l35.1 6.4c.3 0 .4.3.3.5l-2.2 7.5c-.1.2-.3.3-.6.2z" class="st1"/><path d="M120.6 53.6L72 53.5c-.5 0-.6-.7-.1-.8L118.5 39c.3-.1.5.1.5.4l1.9 13.7c.1.2-.1.5-.3.5z" class="st2"/><path d="M24.8 71.2l32.8-13.8c.5-.2.3-.9-.2-.8L22.3 63c-.3 0-.4.3-.3.5l2.2 7.5c.1.2.4.3.6.2z" class="st1"/><path d="M7.6 53.6l48.6-.1c.5 0 .6-.7.1-.8L9.6 39c-.3-.1-.5.1-.5.4l-2 13.7c0 .2.2.5.5.5z" class="st2"/><path d="M64.3 78.1l2.1-1.1-1.9 11.6c-.1.5-.8.5-.8 0L61.8 77l2.1 1.1c.1.1.2.1.4 0z" class="st1"/><path d="M60.6 68.8l-.1.1-.1-.2zm7.1-.1v.2l-.1-.1z"/><path d="M63.9 44.9l-6.5 3.4c-.2.1-.2.5 0 .6l6.5 3.4c.1.1.2.1.3 0l6.5-3.4c.2-.1.2-.5 0-.6l-6.5-3.4c-.1-.1-.2-.1-.3 0zm5 16.2c0 .1 0 .1 0 0l-.1.8-.2 1.5-.6 3.5-2 1-1.6.8-.1.1c-.1.1-.3.1-.4 0l-.1-.1-1.6-.7-2-1-.6-3.5-.2-1.5-.1-.7v-.1l.8.4 1.6.8 2.3 1.2c.1.1.3.1.4 0l2.3-1.2 1.6-.8.6-.5z" class="st1"/><path d="M67.7 68.9l-.2 1.5-.8 4.8-2.4 1.2c-.1.1-.3.1-.4 0l-2.4-1.2-.8-4.8-.2-1.5.1-.1 1.6.8 1.7.9c.1.1.3.1.4 0l1.7-.9 1.6-.8.1.1z" class="st2"/></svg>