<svg xmlns="http://www.w3.org/2000/svg" viewBox="0 0 640 280"><path fill="#022B37" d="M107 170.8L67.7 72H46.9L100 204h13.9L167 72h-20.4zm64 33.2h80v-20h-61v-37h60v-19h-60V91h61V72h-80zm180.1-90.7c0-21-14.4-42.3-43.1-42.3h-48v133h19V91h29.1c16.1 0 24 11.1 24 22.4 0 11.5-7.9 22.6-24 22.6H286v9.6l48 58.4h24.7L317 154c22.6-4 34.1-22 34.1-40.7m56.4 90.7v-1c0-6 1.7-11.7 4.5-16.6V91h39V71h-99v20h41v113h14.5z"/><path fill="#623C94" d="M458 203c0-9.9-8.1-18-18-18s-18 8.1-18 18 8.1 18 18 18 18-8.1 18-18M577.4 72h-23.2l-27.5 37.8L499.1 72h-40.4c12.1 16 33.6 46.8 47.8 66.3l-37 50.9c2 4.2 3.1 8.9 3.1 13.8v1H499l95.2-132h-16.8zm-19.7 81.5l-20.1 27.9 16.5 22.6h40.2c-9.6-13.7-24-33.3-36.6-50.5z"/></svg>